<svg xmlns="http://www.w3.org/2000/svg" aria-hidden="true" style="position:absolute;width:0;height:0;overflow:hidden">
  <defs>
    <symbol id="icon-twitter" viewBox="0 0 32 32">
      <path d="M21.384 4.711c1.652 0 3.143.691 4.193 1.801a11.604 11.604 0 0 0 3.645-1.383 5.725 5.725 0 0 1-2.524 3.152 11.567 11.567 0 0 0 3.299-.9 11.668 11.668 0 0 1-2.866 2.951c.011.244.017.49.017.736 0 7.531-5.778 16.218-16.344 16.218-3.243 0-6.264-.947-8.805-2.563.454.054.912.081 1.369.081 2.691 0 5.169-.91 7.136-2.441a5.738 5.738 0 0 1-5.366-3.957 5.779 5.779 0 0 0 2.593-.097c-2.628-.522-4.608-2.826-4.608-5.589v-.073c.775.427 1.66.684 2.603.714A5.684 5.684 0 0 1 3.17 8.618a5.63 5.63 0 0 1 .778-2.864 16.356 16.356 0 0 0 11.84 5.955 5.635 5.635 0 0 1-.149-1.298c0-3.148 2.572-5.7 5.746-5.7zm8.614 2.672zm-8.614-4.716c-3.925 0-7.176 2.933-7.677 6.723a14.424 14.424 0 0 1-8.23-4.95 2.016 2.016 0 0 0-.686-.538 1.958 1.958 0 0 0-1.894.115c-.27.171-.497.405-.661.684A7.724 7.724 0 0 0 1.171 8.62c0 .922.162 1.819.469 2.659a2.077 2.077 0 0 0-.515 1.371v.073c0 2.003.774 3.862 2.059 5.255a2.09 2.09 0 0 0 .055 1.069 7.7 7.7 0 0 0 2.297 3.475 9.754 9.754 0 0 1-3.3.174 2 2 0 0 0-2.122 1.353c-.31.905.034 1.908.83 2.414a18.334 18.334 0 0 0 9.861 2.871c11.37 0 18.209-9.105 18.342-17.999a13.62 13.62 0 0 0 2.45-2.721 2.06 2.06 0 0 0 .405-1.23c0-.696-.34-1.311-.859-1.68a2.074 2.074 0 0 0-.656-2.159 1.967 1.967 0 0 0-2.261-.185 9.479 9.479 0 0 1-2.111.92 7.776 7.776 0 0 0-4.729-1.613z"/>
    </symbol>
    <symbol id="icon-youtube" viewBox="0 0 32 32">
      <path d="M29.384 5.429C28.518 4.815 26.105 4 15.992 4 5.155 4 3.547 4.936 3.031 5.242.285 6.866.024 14.056 0 15.514c.033 1.925.349 8.332 3.029 9.916.515.305 2.114 1.236 12.963 1.236 10.119 0 12.53-.811 13.392-1.422 2.341-1.657 2.61-7.365 2.616-9.755-.006-1.921-.211-8.355-2.616-10.06zm-1.167 18.219c-.348.247-2.347 1.052-12.226 1.052-9.55 0-11.554-.73-11.933-.954-.964-.569-1.981-3.592-2.061-8.237.079-4.635 1.11-8.018 2.063-8.58.38-.226 2.391-.961 11.931-.961 9.871 0 11.875.81 12.225 1.058.856.607 1.772 3.801 1.785 8.47-.013 4.743-.936 7.551-1.785 8.153zm-5.711-9.088-8.988-5.43a1.008 1.008 0 0 0-1.379.347.988.988 0 0 0-.137.496v10.861c0 .261.105.511.293.695a1.009 1.009 0 0 0 1.222.147l8.989-5.432c.3-.179.483-.498.483-.842s-.183-.665-.482-.842zm-8.505 4.532v-7.378l6.056 3.689-6.056 3.69z"/>
    </symbol>
    <symbol id="icon-instagram" viewBox="0 0 32 32">
      <path d="M16 0c4.355 0 4.891.032 6.596.095 1.673.063 2.84.347 3.882.757 1.073.41 1.957.947 2.84 1.83s1.42 1.767 1.83 2.84c.41 1.041.694 2.209.757 3.882.063 1.704.095 2.241.095 6.596s-.032 4.891-.095 6.596c-.063 1.673-.347 2.84-.757 3.882-.41 1.073-.947 1.957-1.83 2.84s-1.767 1.42-2.84 1.83c-1.041.41-2.209.694-3.882.757-1.704.063-2.241.095-6.596.095s-4.892-.032-6.596-.095c-1.673-.063-2.84-.347-3.882-.757-1.073-.41-1.957-.947-2.84-1.83s-1.42-1.767-1.83-2.84c-.41-1.041-.694-2.209-.757-3.882C.032 20.892 0 20.355 0 16s.032-4.892.095-6.596c.063-1.673.347-2.84.757-3.882.41-1.073.947-1.957 1.83-2.84s1.767-1.42 2.84-1.83C6.563.442 7.731.158 9.404.095 11.108.032 11.645 0 16 0zm0 2.083c-4.544 0-5.081.032-6.848.095-1.641.063-2.556.379-3.156.6-1.546.631-2.588 1.673-3.219 3.219-.221.6-.537 1.515-.6 3.156-.063 1.767-.095 2.304-.095 6.848s.032 5.081.095 6.848c.063 1.641.379 2.556.6 3.156.631 1.546 1.673 2.588 3.219 3.219.6.221 1.515.536 3.156.6 1.767.063 2.304.095 6.848.095s5.081-.032 6.848-.095c1.641-.063 2.556-.379 3.156-.6 1.546-.631 2.588-1.673 3.219-3.219.221-.6.536-1.515.6-3.156.063-1.767.095-2.304.095-6.848s-.032-5.081-.095-6.848c-.063-1.641-.379-2.556-.6-3.156-.631-1.546-1.673-2.588-3.219-3.219-.6-.221-1.515-.537-3.156-.6-1.767-.063-2.304-.095-6.848-.095zm0 20.323c3.535 0 6.406-2.872 6.406-6.406S19.534 9.594 16 9.594c-3.535 0-6.406 2.872-6.406 6.406s2.872 6.406 6.406 6.406zm0-14.611c4.544 0 8.205 3.661 8.205 8.205S20.544 24.205 16 24.205c-4.544 0-8.205-3.661-8.205-8.205S11.456 7.795 16 7.795zm10.477-.316c0 1.073-.884 1.893-1.957 1.893s-1.893-.821-1.893-1.893.821-1.957 1.893-1.957c1.073 0 1.957.884 1.957 1.957z"/>
    </symbol>
    <symbol id="icon-tumblr" viewBox="0 0 32 32">
      <path d="M16.509 1.999v6.992h7.117v2.998H16.54l-.01 8.7c0 1.617.085 2.655.259 3.115.271.726 1.255 1.656 3.083 1.656 1.418 0 3.331-.42 4.764-1.476v4.664c-1.195.561-2.307.788-3.276 1.014-.97.225-2.02.339-3.146.339-1.254 0-4.875-.034-6.361-3.761-.268-.671-.402-1.645-.402-2.92V11.994H7.363l.02-3.065c1.353 0 5.413-.809 5.413-6.93h3.711zM16.508 0h-3.711c-1.121 0-2.031.895-2.031 1.999 0 4.576-2.59 4.931-3.383 4.931-1.117 0-2.025.889-2.031 1.989l-.02 3.065c-.003.532.21 1.042.591 1.42a2.03 2.03 0 0 0 1.439.589h2.057v9.327c0 1.542.178 2.737.542 3.651C10.876 29.265 13.05 32 18.212 32c1.278 0 2.493-.132 3.613-.392l.224-.052c.948-.219 2.159-.493 3.459-1.103.346-.162.639-.418.844-.738s.313-.689.313-1.067v-4.664c0-.371-.105-.735-.303-1.05s-.481-.571-.818-.737a2.05 2.05 0 0 0-2.125.186c-1.209.891-2.755 1.077-3.547 1.077-.812 0-1.114-.29-1.181-.367-.035-.157-.131-.743-.131-2.405l.007-6.701h5.058c1.121 0 2.031-.895 2.031-1.999V8.99c0-1.104-.909-1.999-2.031-1.999h-5.087V1.997c0-1.104-.909-1.999-2.031-1.999z"/>
    </symbol>
    <symbol id="icon-mail-icon" viewBox="0 0 32 32">
      <path d="M28.445 5.333H3.556a1.776 1.776 0 0 0-1.778 1.778v17.778a1.776 1.776 0 0 0 1.778 1.778h24.889a1.776 1.776 0 0 0 1.778-1.778V7.111a1.776 1.776 0 0 0-1.778-1.778zm-1.369 19.556H5.032l6.222-6.436-1.28-1.236-6.418 6.64V8.461l11.049 10.996a1.779 1.779 0 0 0 2.506 0L28.444 8.186v15.556L21.902 17.2l-1.253 1.253 6.427 6.436zM4.72 7.111h22.284L15.857 18.196 4.719 7.111z"/>
    </symbol>
    <symbol id="icon-location" viewBox="0 0 32 32">
      <path d="M25 13a9 9 0 1 0-18 0c0 3.692 2.954 8.504 9 14.268 6.046-5.764 9-10.576 9-14.268zm-9 17C8.666 23.334 5 17.666 5 13a11 11 0 0 1 22 0c0 4.666-3.666 10.334-11 17z"/>
      <path d="M16 16a3.004 3.004 0 0 0 3-3 3.004 3.004 0 0 0-3-3 2.998 2.998 0 0 0-3 3 2.998 2.998 0 0 0 3 3zm0 2a4.997 4.997 0 0 1-5-5 4.997 4.997 0 0 1 5-5 4.997 4.997 0 0 1 5 5 4.997 4.997 0 0 1-5 5z"/>
    </symbol>
    <symbol id="icon-hero-img-text" viewBox="0 0 15 32">
      <path fill="#bc1a1a" style="fill: var(--color1, #bc1a1a)" opacity="0.8" d="M13.865 13.809c0 0.123-0.099 0.222-0.222 0.222s-0.222-0.099-0.222-0.222c0-0.123 0.099-0.222 0.222-0.222s0.222 0.099 0.222 0.222z"></path>
      <path fill="#bc1a1a" style="fill: var(--color1, #bc1a1a)" opacity="0.8" d="M14.641 15.861c0 0.123-0.099 0.222-0.222 0.222s-0.222-0.099-0.222-0.222c0-0.123 0.099-0.222 0.222-0.222s0.222 0.099 0.222 0.222z"></path>
      <path fill="#bc1a1a" style="fill: var(--color1, #bc1a1a)" opacity="0.8" d="M13.033 17.359c0 0.123-0.099 0.222-0.222 0.222s-0.222-0.099-0.222-0.222c0-0.123 0.099-0.222 0.222-0.222s0.222 0.099 0.222 0.222z"></path>
      <path fill="#bc1a1a" style="fill: var(--color1, #bc1a1a)" opacity="0.8" d="M14.031 25.789c0 0.123-0.099 0.222-0.222 0.222s-0.222-0.099-0.222-0.222c0-0.123 0.099-0.222 0.222-0.222s0.222 0.099 0.222 0.222z"></path>
      <path fill="#bc1a1a" style="fill: var(--color1, #bc1a1a)" opacity="0.8" d="M0.998 10.26c0 0.092-0.075 0.166-0.166 0.166s-0.166-0.075-0.166-0.166c0-0.092 0.075-0.166 0.166-0.166s0.166 0.075 0.166 0.166z"></path>
      <path fill="#bc1a1a" style="fill: var(--color1, #bc1a1a)" opacity="0.8" d="M1.165 31.723c0 0.092-0.075 0.166-0.166 0.166s-0.166-0.075-0.166-0.166c0-0.092 0.075-0.166 0.166-0.166s0.166 0.075 0.166 0.166z"></path>
      <path fill="#bc1a1a" style="fill: var(--color1, #bc1a1a)" opacity="0.8" d="M1.719 1.22c0 0.092-0.075 0.166-0.166 0.166s-0.166-0.075-0.166-0.166c0-0.092 0.075-0.166 0.166-0.166s0.166 0.075 0.166 0.166z"></path>
      <path fill="#f3f3f3" style="fill: var(--color2, #f3f3f3)" d="M1.82 0.943v-0.621h0.066v0.621h-0.066zM2.209 0.943v-0.564h-0.218v-0.057h0.502v0.057h-0.218v0.564h-0.066zM2.467 0.943l0.284-0.621h0.065l0.284 0.621h-0.069l-0.261-0.583h0.027l-0.261 0.583h-0.068zM2.579 0.777l0.020-0.053h0.361l0.020 0.053h-0.4zM3.203 0.943v-0.621h0.066v0.564h0.348v0.057h-0.413zM3.807 0.943v-0.231l0.015 0.041-0.264-0.431h0.070l0.232 0.379h-0.037l0.232-0.379h0.066l-0.264 0.431 0.015-0.041v0.231h-0.065zM4.575 0.943v-0.564h-0.218v-0.057h0.502v0.057h-0.218v0.564h-0.066zM5.227 0.948c-0.001 0-0.002 0-0.003 0-0.046 0-0.089-0.008-0.13-0.024l0.002 0.001c-0.040-0.016-0.075-0.039-0.104-0.067l0 0c-0.028-0.028-0.051-0.061-0.067-0.098l-0.001-0.002c-0.015-0.036-0.024-0.078-0.024-0.123 0-0.001 0-0.002 0-0.004v0c0-0.046 0.008-0.087 0.024-0.125 0.017-0.039 0.040-0.072 0.068-0.1l0-0c0.029-0.028 0.063-0.051 0.102-0.066l0.002-0.001c0.037-0.015 0.081-0.024 0.127-0.024 0.001 0 0.003 0 0.004 0h-0c0.047 0 0.090 0.008 0.13 0.024s0.074 0.038 0.103 0.066l-0-0c0.029 0.028 0.052 0.061 0.068 0.098l0.001 0.002c0.017 0.038 0.025 0.080 0.025 0.126s-0.008 0.088-0.025 0.126c-0.016 0.039-0.040 0.073-0.068 0.1l-0 0c-0.029 0.028-0.063 0.050-0.101 0.066l-0.002 0.001c-0.037 0.015-0.081 0.023-0.126 0.023-0.001 0-0.003 0-0.004-0h0zM5.227 0.89c0.037 0 0.072-0.006 0.103-0.019s0.060-0.031 0.083-0.054v0c0.024-0.024 0.042-0.051 0.055-0.082 0.012-0.030 0.020-0.064 0.020-0.1 0-0.001 0-0.002-0-0.003v0c0-0.037-0.006-0.071-0.020-0.102-0.013-0.032-0.032-0.059-0.055-0.082l-0-0c-0.023-0.023-0.050-0.042-0.081-0.054l-0.002-0.001c-0.030-0.012-0.064-0.020-0.1-0.020-0.001 0-0.002 0-0.003 0h0c-0.037 0-0.072 0.007-0.104 0.020s-0.060 0.031-0.083 0.054v0c-0.023 0.023-0.041 0.050-0.054 0.080l-0.001 0.002c-0.012 0.029-0.020 0.063-0.020 0.099 0 0.001 0 0.002 0 0.003v-0c0 0.037 0.007 0.071 0.020 0.102s0.032 0.059 0.055 0.083l-0-0c0.024 0.023 0.051 0.041 0.083 0.054 0.030 0.012 0.065 0.019 0.101 0.019 0.001 0 0.002 0 0.003 0h-0zM5.7 0.943v-0.621h0.054l0.284 0.485h-0.028l0.281-0.484h0.054v0.621h-0.063v-0.523h0.015l-0.259 0.444h-0.031l-0.261-0.444h0.017v0.523h-0.063zM6.448 0.943l0.284-0.621h0.065l0.284 0.621h-0.069l-0.261-0.583h0.027l-0.261 0.583h-0.068zM6.56 0.777l0.020-0.053h0.361l0.020 0.053h-0.4zM7.273 0.943v-0.564h-0.218v-0.057h0.502v0.057h-0.218v0.564h-0.066zM7.925 0.948c-0.001 0-0.002 0-0.003 0-0.046 0-0.089-0.008-0.13-0.024l0.002 0.001c-0.040-0.016-0.075-0.039-0.104-0.067l0 0c-0.028-0.028-0.051-0.061-0.067-0.098l-0.001-0.002c-0.015-0.036-0.024-0.078-0.024-0.123 0-0.001 0-0.002 0-0.004v0c0-0.046 0.008-0.087 0.024-0.125 0.017-0.039 0.040-0.072 0.068-0.1l0-0c0.029-0.028 0.063-0.051 0.102-0.066l0.002-0.001c0.037-0.015 0.081-0.024 0.127-0.024 0.001 0 0.003 0 0.004 0h-0c0.047 0 0.090 0.008 0.13 0.024s0.074 0.038 0.103 0.066l-0-0c0.029 0.028 0.052 0.061 0.068 0.098l0.001 0.002c0.017 0.038 0.025 0.080 0.025 0.126s-0.008 0.088-0.025 0.126c-0.016 0.039-0.040 0.073-0.068 0.1l-0 0c-0.029 0.028-0.063 0.050-0.101 0.066l-0.002 0.001c-0.037 0.015-0.081 0.023-0.126 0.023-0.001 0-0.003 0-0.004-0h0zM7.925 0.89c0.037 0 0.072-0.006 0.103-0.019s0.060-0.031 0.083-0.054v0c0.024-0.024 0.042-0.051 0.055-0.082 0.012-0.030 0.020-0.064 0.020-0.1 0-0.001 0-0.002-0-0.003v0c0-0.001 0-0.002 0-0.003 0-0.036-0.007-0.070-0.020-0.1l0.001 0.002c-0.013-0.032-0.032-0.059-0.055-0.082l-0-0c-0.023-0.023-0.050-0.042-0.081-0.054l-0.002-0.001c-0.030-0.012-0.064-0.020-0.1-0.020-0.001 0-0.002 0-0.003 0h0c-0.037 0-0.072 0.007-0.104 0.020s-0.060 0.031-0.083 0.054v0c-0.023 0.023-0.041 0.050-0.054 0.080l-0.001 0.002c-0.012 0.029-0.020 0.063-0.020 0.099 0 0.001 0 0.002 0 0.004v-0c0 0.037 0.006 0.071 0.020 0.102s0.032 0.059 0.055 0.083c0.024 0.023 0.051 0.041 0.083 0.054 0.030 0.012 0.065 0.019 0.101 0.019 0.001 0 0.002 0 0.003 0h-0zM8.456 0.599h0.328v0.056h-0.328v-0.056zM8.463 0.886h0.374v0.057h-0.439v-0.621h0.426v0.057h-0.36v0.508zM9.162 0.948c-0 0-0.001 0-0.001 0-0.047 0-0.093-0.008-0.135-0.023l0.003 0.001c-0.042-0.015-0.075-0.035-0.098-0.059l0.026-0.051c0.022 0.021 0.051 0.039 0.088 0.054 0.034 0.013 0.074 0.021 0.116 0.021 0 0 0.001 0 0.001 0h-0c0.039 0 0.071-0.005 0.095-0.014s0.043-0.023 0.054-0.040c0.012-0.017 0.018-0.035 0.018-0.055 0-0.024-0.007-0.044-0.021-0.059s-0.032-0.026-0.054-0.035c-0.020-0.008-0.045-0.016-0.071-0.022l-0.004-0.001c-0.027-0.006-0.054-0.013-0.082-0.020-0.029-0.008-0.054-0.018-0.077-0.031l0.002 0.001c-0.022-0.012-0.041-0.029-0.055-0.048l-0-0c-0.014-0.021-0.020-0.048-0.020-0.081 0-0.031 0.008-0.059 0.024-0.084s0.042-0.047 0.075-0.062c0.034-0.016 0.077-0.024 0.13-0.024 0.035 0 0.069 0.005 0.104 0.015s0.064 0.023 0.089 0.040l-0.022 0.052c-0.024-0.017-0.053-0.030-0.083-0.039l-0.002-0.001c-0.026-0.008-0.055-0.012-0.086-0.012h-0c-0.037 0-0.068 0.005-0.092 0.015s-0.042 0.024-0.054 0.041c-0.011 0.017-0.017 0.035-0.017 0.057 0 0.024 0.007 0.044 0.020 0.059s0.033 0.026 0.055 0.035c0.023 0.008 0.048 0.016 0.075 0.022s0.054 0.014 0.081 0.021c0.027 0.008 0.052 0.018 0.075 0.030 0.023 0.011 0.041 0.028 0.055 0.047l0 0c0.014 0.020 0.021 0.046 0.021 0.079 0 0.030-0.008 0.058-0.025 0.084s-0.042 0.046-0.076 0.062c-0.034 0.015-0.077 0.023-0.13 0.023zM1.158 9.662h0.328v0.057h-0.328v-0.057zM1.165 9.983h-0.066v-0.621h0.426v0.057h-0.36v0.564zM1.661 9.983v-0.621h0.232c0.053 0 0.098 0.009 0.136 0.026s0.067 0.041 0.087 0.073c0.021 0.031 0.031 0.069 0.031 0.114 0 0.044-0.010 0.082-0.031 0.114s-0.049 0.056-0.087 0.073c-0.038 0.017-0.083 0.025-0.136 0.025h-0.196l0.029-0.030v0.227h-0.066zM2.085 9.983l-0.16-0.225h0.071l0.161 0.225h-0.072zM1.727 9.761l-0.029-0.031h0.194c0.062 0 0.109-0.014 0.141-0.041s0.049-0.065 0.049-0.114c0-0.050-0.016-0.088-0.049-0.115s-0.079-0.041-0.141-0.041h-0.194l0.029-0.031v0.374zM2.361 9.639h0.328v0.056h-0.328v-0.056zM2.368 9.926h0.374v0.057h-0.439v-0.621h0.426v0.057h-0.36v0.508zM3.067 9.988c-0 0-0.001 0-0.001 0-0.047 0-0.092-0.008-0.135-0.023l0.003 0.001c-0.042-0.015-0.075-0.035-0.098-0.059l0.026-0.051c0.022 0.021 0.051 0.039 0.088 0.054 0.034 0.013 0.074 0.021 0.116 0.021 0 0 0.001 0 0.001 0h-0c0.039 0 0.071-0.005 0.095-0.014s0.043-0.023 0.054-0.040c0.011-0.015 0.018-0.034 0.018-0.055 0-0 0-0 0-0.001v0c0-0.024-0.007-0.044-0.021-0.059s-0.032-0.026-0.054-0.035c-0.020-0.008-0.045-0.016-0.071-0.022l-0.004-0.001c-0.027-0.007-0.054-0.013-0.082-0.020-0.029-0.008-0.054-0.018-0.077-0.031l0.002 0.001c-0.022-0.012-0.041-0.029-0.055-0.048l-0-0.001c-0.014-0.021-0.020-0.048-0.020-0.081 0-0.031 0.008-0.059 0.024-0.084s0.042-0.047 0.075-0.062c0.034-0.016 0.077-0.024 0.13-0.024 0.037 0 0.073 0.006 0.106 0.016l-0.003-0.001c0.034 0.009 0.063 0.023 0.090 0.041l-0.001-0.001-0.022 0.052c-0.024-0.017-0.053-0.030-0.083-0.039l-0.002-0.001c-0.026-0.008-0.055-0.012-0.086-0.012h-0c-0.037 0-0.068 0.005-0.092 0.015s-0.042 0.024-0.054 0.041c-0.011 0.017-0.017 0.036-0.017 0.057 0 0.024 0.007 0.044 0.020 0.059s0.033 0.026 0.055 0.035c0.023 0.008 0.048 0.016 0.075 0.022s0.054 0.014 0.081 0.021c0.027 0.008 0.052 0.018 0.075 0.030s0.041 0.028 0.055 0.048c0.014 0.020 0.021 0.046 0.021 0.079 0 0.030-0.008 0.058-0.025 0.084s-0.042 0.046-0.076 0.062c-0.034 0.015-0.077 0.023-0.13 0.023zM3.896 9.362h0.065v0.621h-0.065v-0.621zM3.507 9.983h-0.066v-0.621h0.066v0.621zM3.902 9.696h-0.402v-0.058h0.402v0.058zM4.668 9.988c-0.001 0-0.002 0-0.004 0-0.046 0-0.090-0.008-0.13-0.024l0.003 0.001c-0.040-0.016-0.075-0.039-0.104-0.067l0 0c-0.028-0.028-0.051-0.061-0.068-0.098l-0.001-0.002c-0.015-0.036-0.024-0.078-0.024-0.122 0-0.001 0-0.002 0-0.004v0c0-0.046 0.008-0.088 0.024-0.126 0.017-0.039 0.040-0.072 0.069-0.1l0-0c0.029-0.028 0.063-0.050 0.102-0.065l0.002-0.001c0.038-0.015 0.082-0.024 0.128-0.024 0.001 0 0.002 0 0.004 0h-0c0.047 0 0.091 0.007 0.13 0.022s0.074 0.038 0.101 0.067l0 0-0.041 0.042c-0.024-0.024-0.052-0.043-0.085-0.055l-0.002-0.001c-0.029-0.011-0.063-0.017-0.099-0.017-0.001 0-0.002 0-0.003 0h0c-0.001 0-0.002 0-0.003 0-0.037 0-0.073 0.007-0.105 0.020l0.002-0.001c-0.033 0.013-0.061 0.031-0.084 0.054l0-0c-0.023 0.023-0.042 0.050-0.055 0.080l-0.001 0.002c-0.012 0.029-0.020 0.063-0.020 0.099 0 0.001 0 0.002 0 0.003v-0c0 0.037 0.007 0.071 0.020 0.102s0.033 0.059 0.056 0.083v0c0.024 0.023 0.052 0.041 0.084 0.054 0.031 0.012 0.066 0.019 0.103 0.019 0.001 0 0.002 0 0.003 0h-0c0.035 0 0.069-0.005 0.1-0.016 0.034-0.012 0.064-0.030 0.088-0.054l-0 0 0.037 0.050c-0.029 0.026-0.064 0.046-0.102 0.059l-0.002 0.001c-0.037 0.012-0.079 0.020-0.123 0.020-0.001 0-0.001 0-0.002 0h0zM4.833 9.901v-0.229h0.063v0.237l-0.063-0.008zM4.983 9.983l0.284-0.621h0.065l0.284 0.621h-0.069l-0.261-0.583h0.027l-0.261 0.583h-0.068zM5.095 9.817l0.020-0.053h0.361l0.020 0.053h-0.4zM5.718 9.983v-0.621h0.232c0.053 0 0.098 0.009 0.136 0.026s0.067 0.041 0.087 0.073c0.021 0.031 0.031 0.069 0.031 0.114 0 0.044-0.010 0.082-0.031 0.114s-0.049 0.056-0.087 0.073c-0.038 0.017-0.083 0.025-0.136 0.025h-0.196l0.029-0.030v0.227h-0.066zM6.142 9.983l-0.16-0.225h0.071l0.161 0.225h-0.072zM5.784 9.761l-0.029-0.031h0.194c0.062 0 0.109-0.014 0.141-0.041s0.049-0.065 0.049-0.114c0-0.050-0.016-0.088-0.049-0.115s-0.079-0.041-0.141-0.041h-0.194l0.029-0.031v0.374zM6.359 9.983v-0.621h0.066v0.564h0.348v0.057h-0.413zM6.882 9.983v-0.621h0.066v0.621h-0.066zM7.419 9.988c-0.001 0-0.002 0-0.004 0-0.045 0-0.089-0.008-0.128-0.024l0.002 0.001c-0.040-0.016-0.074-0.039-0.103-0.067l0 0c-0.028-0.028-0.051-0.061-0.068-0.098l-0.001-0.002c-0.015-0.036-0.024-0.078-0.024-0.123 0-0.001 0-0.002 0-0.004v0c0-0.046 0.008-0.088 0.024-0.126s0.040-0.072 0.068-0.1l0-0c0.029-0.028 0.064-0.050 0.102-0.065l0.002-0.001c0.037-0.015 0.081-0.024 0.126-0.024 0.001 0 0.002 0 0.004 0h-0c0.045 0 0.087 0.008 0.127 0.023s0.073 0.038 0.1 0.067l0 0-0.042 0.042c-0.023-0.024-0.051-0.043-0.083-0.055l-0.002-0.001c-0.029-0.011-0.062-0.018-0.097-0.018-0.001 0-0.002 0-0.002 0h0c-0.037 0-0.072 0.007-0.104 0.020s-0.060 0.031-0.083 0.054v0c-0.023 0.023-0.042 0.050-0.055 0.080l-0.001 0.002c-0.012 0.029-0.020 0.063-0.020 0.099 0 0.001 0 0.002 0 0.004v-0c0 0.037 0.006 0.072 0.020 0.103 0.014 0.032 0.033 0.059 0.056 0.082v0c0.024 0.023 0.051 0.041 0.083 0.054 0.030 0.012 0.065 0.019 0.101 0.019 0.001 0 0.002 0 0.003 0h-0c0.035 0 0.069-0.006 0.099-0.018 0.033-0.013 0.061-0.033 0.084-0.057l0-0 0.042 0.042c-0.027 0.030-0.061 0.053-0.098 0.068l-0.002 0.001c-0.037 0.015-0.080 0.023-0.125 0.023-0.001 0-0.002 0-0.003 0h0zM0.242 21.13l-0.209-0.621h0.067l0.196 0.585h-0.034l0.202-0.585h0.060l0.2 0.585h-0.032l0.198-0.585h0.063l-0.209 0.621h-0.069l-0.191-0.555h0.018l-0.192 0.555h-0.068zM1.529 20.509h0.065v0.621h-0.065v-0.621zM1.14 21.13h-0.066v-0.621h0.066v0.621zM1.535 20.843h-0.402v-0.058h0.402v0.058zM1.796 21.13v-0.621h0.066v0.621h-0.066zM2.185 21.13v-0.564h-0.218v-0.057h0.502v0.057h-0.218v0.564h-0.066zM2.632 20.787h0.328v0.056h-0.328v-0.056zM2.639 21.073h0.374v0.057h-0.439v-0.621h0.426v0.057h-0.36v0.508zM3.54 21.13l-0.209-0.621h0.067l0.196 0.585h-0.034l0.202-0.585h0.060l0.2 0.585h-0.032l0.198-0.585h0.063l-0.209 0.621h-0.069l-0.191-0.555h0.018l-0.192 0.555h-0.068zM4.372 21.13v-0.621h0.066v0.621h-0.066zM4.64 21.13v-0.621h0.054l0.429 0.54h-0.028v-0.54h0.065v0.621h-0.054l-0.428-0.54h0.028v0.54h-0.066zM5.421 20.787h0.328v0.056h-0.328v-0.056zM5.428 21.073h0.374v0.057h-0.439v-0.621h0.426v0.057h-0.36v0.508zM1.324 31.070h0.328v0.057h-0.328v-0.057zM1.331 31.39h-0.066v-0.621h0.426v0.057h-0.36v0.564zM1.827 31.39v-0.621h0.233c0.053 0 0.098 0.009 0.136 0.026s0.067 0.041 0.087 0.073c0.021 0.031 0.031 0.070 0.031 0.114 0 0.044-0.010 0.082-0.031 0.114s-0.049 0.056-0.087 0.073c-0.038 0.017-0.083 0.025-0.136 0.025h-0.196l0.029-0.030v0.227h-0.066zM2.251 31.39l-0.16-0.225h0.071l0.161 0.225h-0.072zM1.893 31.168l-0.029-0.031h0.194c0.062 0 0.109-0.014 0.141-0.041s0.049-0.065 0.049-0.114c0-0.050-0.016-0.088-0.049-0.115s-0.079-0.041-0.141-0.041h-0.194l0.029-0.031v0.374zM2.527 31.047h0.328v0.056h-0.328v-0.056zM2.534 31.333h0.374v0.057h-0.439v-0.621h0.426v0.057h-0.36v0.508zM3.233 31.395c-0 0-0.001 0-0.001 0-0.047 0-0.092-0.008-0.135-0.023l0.003 0.001c-0.042-0.015-0.075-0.035-0.098-0.059l0.026-0.051c0.022 0.021 0.051 0.039 0.088 0.054 0.034 0.013 0.074 0.021 0.116 0.021 0 0 0.001 0 0.001 0h-0c0.039 0 0.071-0.005 0.095-0.014s0.043-0.023 0.054-0.040c0.011-0.015 0.018-0.034 0.018-0.055 0-0 0-0 0-0.001v0c0-0.024-0.007-0.044-0.021-0.059s-0.032-0.026-0.054-0.035c-0.020-0.008-0.045-0.016-0.071-0.022l-0.004-0.001c-0.027-0.006-0.054-0.013-0.082-0.020-0.029-0.008-0.054-0.018-0.077-0.031l0.002 0.001c-0.022-0.012-0.041-0.029-0.055-0.048l-0-0c-0.014-0.021-0.020-0.048-0.020-0.081 0-0.031 0.008-0.059 0.024-0.084s0.042-0.047 0.075-0.062c0.034-0.016 0.077-0.024 0.13-0.024 0.037 0 0.073 0.006 0.106 0.016l-0.003-0.001c0.034 0.009 0.063 0.023 0.090 0.041l-0.001-0.001-0.022 0.052c-0.024-0.017-0.053-0.030-0.083-0.039l-0.002-0c-0.026-0.008-0.055-0.012-0.086-0.012h-0c-0.037 0-0.068 0.005-0.092 0.015s-0.042 0.024-0.054 0.041c-0.011 0.017-0.017 0.035-0.017 0.057 0 0.024 0.007 0.044 0.020 0.059s0.033 0.026 0.055 0.035c0.023 0.008 0.048 0.016 0.075 0.022s0.054 0.014 0.081 0.021c0.027 0.008 0.052 0.018 0.075 0.030s0.041 0.028 0.055 0.048c0.014 0.020 0.021 0.046 0.021 0.079 0 0.030-0.008 0.058-0.025 0.084s-0.042 0.046-0.076 0.062c-0.034 0.015-0.077 0.023-0.13 0.023zM4.062 30.769h0.065v0.621h-0.065v-0.621zM3.674 31.39h-0.066v-0.621h0.066v0.621zM4.069 31.103h-0.402v-0.058h0.402v0.058zM4.562 31.39v-0.621h0.268c0.069 0 0.123 0.014 0.161 0.042s0.058 0.067 0.058 0.118c0 0.034-0.008 0.062-0.024 0.085s-0.037 0.041-0.063 0.052l-0.001 0c-0.027 0.012-0.056 0.018-0.088 0.018l0.015-0.021c0.040 0 0.074 0.006 0.102 0.019 0.028 0.011 0.051 0.030 0.067 0.054l0 0c0.016 0.024 0.024 0.053 0.024 0.089 0 0.053-0.020 0.093-0.059 0.122s-0.097 0.043-0.175 0.043h-0.286zM4.628 31.336h0.219c0.054 0 0.096-0.009 0.125-0.027s0.043-0.049 0.043-0.090c0-0.040-0.014-0.070-0.043-0.088s-0.071-0.028-0.125-0.028h-0.226v-0.054h0.205c0.050 0 0.088-0.009 0.115-0.028s0.042-0.047 0.042-0.084c0-0.038-0.014-0.066-0.042-0.084s-0.066-0.028-0.115-0.028h-0.198v0.513zM5.132 31.39l0.284-0.621h0.065l0.284 0.621h-0.069l-0.261-0.583h0.027l-0.261 0.583h-0.068zM5.244 31.224l0.020-0.053h0.361l0.020 0.053h-0.4zM6.038 31.395c-0 0-0.001 0-0.001 0-0.047 0-0.093-0.008-0.135-0.023l0.003 0.001c-0.042-0.015-0.075-0.035-0.098-0.059l0.026-0.051c0.022 0.021 0.051 0.039 0.088 0.054 0.034 0.013 0.074 0.021 0.116 0.021 0 0 0.001 0 0.001 0h-0c0.039 0 0.071-0.005 0.095-0.014s0.043-0.023 0.054-0.040c0.011-0.015 0.018-0.034 0.018-0.055 0-0 0-0 0-0.001v0c0-0.024-0.007-0.044-0.021-0.059s-0.032-0.026-0.054-0.035c-0.020-0.008-0.045-0.016-0.071-0.022l-0.004-0.001c-0.027-0.006-0.054-0.013-0.082-0.020-0.029-0.008-0.054-0.018-0.077-0.031l0.002 0.001c-0.022-0.012-0.041-0.029-0.055-0.048l-0-0c-0.014-0.021-0.020-0.048-0.020-0.081 0-0.031 0.008-0.059 0.024-0.084s0.042-0.047 0.075-0.062c0.034-0.016 0.077-0.024 0.13-0.024 0.037 0 0.073 0.006 0.106 0.016l-0.003-0.001c0.034 0.009 0.063 0.023 0.090 0.041l-0.001-0.001-0.022 0.052c-0.024-0.017-0.053-0.030-0.083-0.039l-0.002-0c-0.026-0.008-0.055-0.012-0.086-0.012h-0c-0.037 0-0.068 0.005-0.092 0.015s-0.042 0.024-0.054 0.041c-0.011 0.017-0.017 0.035-0.017 0.057 0 0.024 0.007 0.044 0.020 0.059s0.032 0.026 0.055 0.035c0.023 0.008 0.048 0.016 0.075 0.022s0.054 0.014 0.081 0.021c0.027 0.008 0.052 0.018 0.075 0.030s0.041 0.028 0.055 0.048c0.014 0.020 0.021 0.046 0.021 0.079 0 0.030-0.008 0.058-0.025 0.084s-0.042 0.046-0.076 0.062c-0.034 0.015-0.077 0.023-0.13 0.023zM6.413 31.39v-0.621h0.066v0.621h-0.066zM6.681 31.39v-0.621h0.066v0.564h0.348v0.057h-0.413z"></path>
    </symbol>
  </defs>
</svg>
