<svg width="132" height="32" viewBox="0 0 132 32" fill="none" xmlns="http://www.w3.org/2000/svg">
<path d="M56.36 23.24C55.28 23.24 54.2733 23.0667 53.34 22.72C52.42 22.36 51.62 21.8533 50.94 21.2C50.26 20.5467 49.7267 19.78 49.34 18.9C48.9667 18.02 48.78 17.0533 48.78 16C48.78 14.9467 48.9667 13.98 49.34 13.1C49.7267 12.22 50.26 11.4533 50.94 10.8C51.6333 10.1467 52.44 9.64667 53.36 9.3C54.28 8.94 55.2867 8.76 56.38 8.76C57.5933 8.76 58.6867 8.97333 59.66 9.4C60.6467 9.81333 61.4733 10.4267 62.14 11.24L60.06 13.16C59.58 12.6133 59.0467 12.2067 58.46 11.94C57.8733 11.66 57.2333 11.52 56.54 11.52C55.8867 11.52 55.2867 11.6267 54.74 11.84C54.1933 12.0533 53.72 12.36 53.32 12.76C52.92 13.16 52.6067 13.6333 52.38 14.18C52.1667 14.7267 52.06 15.3333 52.06 16C52.06 16.6667 52.1667 17.2733 52.38 17.82C52.6067 18.3667 52.92 18.84 53.32 19.24C53.72 19.64 54.1933 19.9467 54.74 20.16C55.2867 20.3733 55.8867 20.48 56.54 20.48C57.2333 20.48 57.8733 20.3467 58.46 20.08C59.0467 19.8 59.58 19.38 60.06 18.82L62.14 20.74C61.4733 21.5533 60.6467 22.1733 59.66 22.6C58.6867 23.0267 57.5867 23.24 56.36 23.24ZM70.4698 23.24C68.4832 23.24 66.9298 22.6867 65.8098 21.58C64.6898 20.4733 64.1298 18.8933 64.1298 16.84V9H67.3698V16.72C67.3698 18.0533 67.6432 19.0133 68.1898 19.6C68.7365 20.1867 69.5032 20.48 70.4898 20.48C71.4765 20.48 72.2432 20.1867 72.7898 19.6C73.3365 19.0133 73.6098 18.0533 73.6098 16.72V9H76.8098V16.84C76.8098 18.8933 76.2498 20.4733 75.1298 21.58C74.0098 22.6867 72.4565 23.24 70.4698 23.24ZM86.7116 23.24C85.6316 23.24 84.6249 23.0667 83.6916 22.72C82.7716 22.36 81.9716 21.8533 81.2916 21.2C80.6116 20.5467 80.0782 19.78 79.6916 18.9C79.3182 18.02 79.1316 17.0533 79.1316 16C79.1316 14.9467 79.3182 13.98 79.6916 13.1C80.0782 12.22 80.6116 11.4533 81.2916 10.8C81.9849 10.1467 82.7916 9.64667 83.7116 9.3C84.6316 8.94 85.6382 8.76 86.7316 8.76C87.9449 8.76 89.0382 8.97333 90.0116 9.4C90.9982 9.81333 91.8249 10.4267 92.4916 11.24L90.4116 13.16C89.9316 12.6133 89.3982 12.2067 88.8116 11.94C88.2249 11.66 87.5849 11.52 86.8916 11.52C86.2382 11.52 85.6382 11.6267 85.0916 11.84C84.5449 12.0533 84.0716 12.36 83.6716 12.76C83.2716 13.16 82.9582 13.6333 82.7316 14.18C82.5182 14.7267 82.4116 15.3333 82.4116 16C82.4116 16.6667 82.5182 17.2733 82.7316 17.82C82.9582 18.3667 83.2716 18.84 83.6716 19.24C84.0716 19.64 84.5449 19.9467 85.0916 20.16C85.6382 20.3733 86.2382 20.48 86.8916 20.48C87.5849 20.48 88.2249 20.3467 88.8116 20.08C89.3982 19.8 89.9316 19.38 90.4116 18.82L92.4916 20.74C91.8249 21.5533 90.9982 22.1733 90.0116 22.6C89.0382 23.0267 87.9382 23.24 86.7116 23.24ZM94.6795 23V9H97.9195V23H94.6795ZM101.242 23V9H103.922L112.182 19.08H110.882V9H114.082V23H111.422L103.142 12.92H104.442V23H101.242ZM115.554 23L121.794 9H124.994L131.254 23H127.854L122.734 10.64H124.014L118.874 23H115.554ZM118.674 20L119.534 17.54H126.734L127.614 20H118.674Z" fill="#F3F3F3"/>
<path d="M31.979 15.7994C31.332 3.75029 25.5224 1.98857 20.8386 1.988H20.8381C19.6546 1.98857 18.5442 2.10057 17.6061 2.18857C17.5981 1.64057 17.6199 1.05371 17.7058 0.405143C17.7074 0.396 17.7037 0.388 17.7026 0.379429C17.7037 0.374857 17.7058 0.370286 17.7058 0.365714C17.7058 0.164 17.3517 0 16.9133 0C16.4759 0 16.1218 0.164 16.1218 0.365714C16.0018 1.01948 15.8384 1.66322 15.6327 2.292C9.45295 2.332 1.31263 3.38229 0.0699598 15.3903C-0.831379 24.1051 7.11267 32 16.0498 32C24.9869 32 32.4488 24.5571 31.979 15.7994ZM17.9389 3.87829C18.157 3.85771 18.3831 3.83657 18.6157 3.81657C18.3362 3.93714 18.0647 4.06229 17.8093 4.188C17.7906 4.09771 17.7778 3.99029 17.7607 3.89429L17.9389 3.87829ZM14.9741 4.01429C14.9042 4.17029 14.8359 4.32 14.7703 4.45771C14.613 4.3052 14.4468 4.16358 14.2727 4.03371C14.5063 4.02514 14.7399 4.01943 14.9741 4.01429ZM27.012 25.3291C24.236 28.4794 20.2402 30.2857 16.0498 30.2857C11.7794 30.2857 7.53774 28.2606 4.70252 24.8686C2.40544 22.1194 1.3249 18.8206 1.66037 15.5789C2.29024 9.49429 4.80279 6.588 8.02734 5.21143C11.1516 4.58971 14.0914 5.73143 14.0914 5.73143C14.0914 5.73143 7.4092 3.95429 4.78892 13.1531C8.08654 7.64514 13.7612 9.26629 15.2541 7.236C15.2541 11.1611 17.9165 9.25657 19.2621 11.0246C20.9933 13.2977 21.6269 17.3709 23.6184 18.1731C21.6568 13.6611 24.8685 13.8371 20.356 7.78171C22.733 9.364 23.9656 7.76286 27.2115 9.18857C24.4344 4.32514 19.9917 5.73143 19.9917 5.73143C19.9917 5.73143 21.7997 3.96629 23.7165 4.01543C26.9549 4.82571 29.9336 7.552 30.3821 15.8983C30.5645 19.3069 29.3677 22.656 27.012 25.3291Z" fill="#F3F3F3"/>
</svg>
